<?xml version="1.0" standalone="no"?><!DOCTYPE svg PUBLIC "-//W3C//DTD SVG 1.1//EN" "http://www.w3.org/Graphics/SVG/1.1/DTD/svg11.dtd"><svg t="1498653044178" class="icon" style="" viewBox="0 0 1000 1000" version="1.1" xmlns="http://www.w3.org/2000/svg" p-id="3976" xmlns:xlink="http://www.w3.org/1999/xlink" width="25" height="25"><defs><style type="text/css">@font-face { font-family: SimSun; src: local("Source Han Sans SC"); }
@font-face { font-family: 宋体; src: local("Source Han Sans SC"); }
@font-face { font-family: NSimSun; src: local("Source Han Sans SC"); }
@font-face { font-family: 新宋体; src: local("Source Han Sans SC"); }
@font-face { font-family: SimHei; src: local("Source Han Sans SC"); }
@font-face { font-family: 黑体; src: local("Source Han Sans SC"); }
@font-face { font-family: "Microsoft YaHei"; src: local("Source Han Sans SC"); }
@font-face { font-family: 微软雅黑; src: local("Source Han Sans SC"); }
@font-face { font-family: "Microsoft YaHei UI"; src: local("Source Han Sans SC"); }
@font-face { font-family: "STHeiti SC"; src: local("PingFang SC"); }
@font-face { font-family: MingLiU; src: local("Source Han Sans TC"); }
@font-face { font-family: MingLiU-ExtB; src: local("Source Han Sans TC"); }
@font-face { font-family: MingLiU_HKSCS; src: local("Source Han Sans TC"); }
@font-face { font-family: MingLiU_HKSCS-ExtB; src: local("Source Han Sans TC"); }
@font-face { font-family: PMingLiU; src: local("Source Han Sans TC"); }
@font-face { font-family: PMingLiU-ExtB; src: local("Source Han Sans TC"); }
@font-face { font-family: "Microsoft JhengHei"; src: local("Source Han Sans TC"); }
@font-face { font-family: 微軟正黑體; src: local("Source Han Sans TC"); }
@font-face { font-family: "Microsoft JhengHei UI"; src: local("Source Han Sans TC"); }
@font-face { font-family: "STHeiti TC"; src: local("PingFang TC"); }
@font-face { font-family: Arial; src: local("Source Han Sans SC"); }
@font-face { font-family: Tahoma; src: local("Source Han Sans SC"); }
@font-face { font-family: Verdana; src: local("Source Han Sans SC"); }
@font-face { font-family: Helvetica; src: local("Source Han Sans SC"); }
@font-face { font-family: "Segoe UI"; src: local("Source Han Sans SC"); }
@font-face { font-family: Courier; src: local("Source Code Pro"); }
@font-face { font-family: "Courier New"; src: local("Source Code Pro"); }
</style></defs><path d="M70.1213 121.9183h108.4838957584019c6.4549 1.452 29.6181 8.3873 30.6545 33.2555 0.039 0.9324 0.1429 1.8597 0.3108 2.7771l87.978 479.1791c0.2049 1.1142 0.5037 2.2085 0.8934 3.2718 0.6596 1.7988 6.8606 18.0428 21.3344 34.4267 20.1302 22.7856 46.4274 34.8304 76.0496 34.8304h501.65944293485046c11.039 0 19.9873-8.9479 19.9873-19.9864s-8.9483-19.9864-19.9873-19.9864H395.82585892786295c-39.0931 0-56.0853-34.2937-59.3292-41.7847l-22.3897-121.9503h529.3817838037171c61.9785 0 93.1906-58.8211 94.4888-61.3254 0.3628-0.6995 0.6846-1.42 0.9624-2.1575l59.8998-159.1011c0.063-0.1669 0.1229-0.3358 0.1819-0.5047 8.7085-25.1549 3.4718-43.2037-2.4554-53.9154-13.5004-24.3975-40.7021-31.2888-43.7591-31.9943-1.4741-0.3398-2.9811-0.5117-4.4941-0.5117H265.0821426751159c-2.6663 0-5.2047 0.5326-7.5312 1.479l-8.4276-45.8999c-2.8022-47.3539-43.8651-66.377-65.4053-69.8237-1.0443-0.1669-2.1007-0.2508-3.158-0.2508H70.12133271106305c-11.038 0-19.9873 8.9479-19.9873 19.9864C50.1341 112.9704 59.0834 121.9183 70.1213 121.9183zM265.0821 236.4127h680.3865937397878c4.4981 1.54 12.6469 5.4543 16.1997 12.0338 2.7912 5.1695 2.6753 12.2697-0.3428 21.1057l-59.2822 157.4622c-3.2569 5.5942-24.1676 38.9636-58.5557 38.9636H310.00752520644346c-1.0883 0-2.1476 0.1109-3.189 0.2778l-42.2031-229.8662C264.7713 236.3927 264.9242 236.4127 265.0821 236.4127zM406.4961 745.7044c-38.7833 0-70.3362 31.5516-70.3362 70.3333s31.5529 70.3333 70.3362 70.3333c38.7843 0 70.3362-31.5516 70.3362-70.3333S445.2804 745.7044 406.4961 745.7044zM406.4961 842.4238c-14.5497 0-26.3872-11.837-26.3872-26.3861s11.8375-26.3861 26.3872-26.3861c14.5507 0 26.3882 11.837 26.3882 26.3861S421.0468 842.4238 406.4961 842.4238zM828.7621 745.7044c-38.7833 0-70.3352 31.5516-70.3352 70.3333s31.5519 70.3333 70.3352 70.3333 70.3362-31.5516 70.3362-70.3333S867.5444 745.7044 828.7621 745.7044zM828.7621 842.4238c-14.5497 0-26.3862-11.837-26.3862-26.3861s11.8375-26.3861 26.3862-26.3861c14.5507 0 26.3872 11.837 26.3872 26.3861S843.3118 842.4238 828.7621 842.4238z" p-id="3977" fill="#cccccc"></path></svg>