<?xml version="1.0" standalone="no"?><!DOCTYPE svg PUBLIC "-//W3C//DTD SVG 1.1//EN" "http://www.w3.org/Graphics/SVG/1.1/DTD/svg11.dtd"><svg t="1498653875207" class="icon" style="" viewBox="0 0 1024 1024" version="1.1" xmlns="http://www.w3.org/2000/svg" p-id="2390" xmlns:xlink="http://www.w3.org/1999/xlink" width="21" height="21"><defs><style type="text/css">@font-face { font-family: SimSun; src: local("Source Han Sans SC"); }
@font-face { font-family: 宋体; src: local("Source Han Sans SC"); }
@font-face { font-family: NSimSun; src: local("Source Han Sans SC"); }
@font-face { font-family: 新宋体; src: local("Source Han Sans SC"); }
@font-face { font-family: SimHei; src: local("Source Han Sans SC"); }
@font-face { font-family: 黑体; src: local("Source Han Sans SC"); }
@font-face { font-family: "Microsoft YaHei"; src: local("Source Han Sans SC"); }
@font-face { font-family: 微软雅黑; src: local("Source Han Sans SC"); }
@font-face { font-family: "Microsoft YaHei UI"; src: local("Source Han Sans SC"); }
@font-face { font-family: "STHeiti SC"; src: local("PingFang SC"); }
@font-face { font-family: MingLiU; src: local("Source Han Sans TC"); }
@font-face { font-family: MingLiU-ExtB; src: local("Source Han Sans TC"); }
@font-face { font-family: MingLiU_HKSCS; src: local("Source Han Sans TC"); }
@font-face { font-family: MingLiU_HKSCS-ExtB; src: local("Source Han Sans TC"); }
@font-face { font-family: PMingLiU; src: local("Source Han Sans TC"); }
@font-face { font-family: PMingLiU-ExtB; src: local("Source Han Sans TC"); }
@font-face { font-family: "Microsoft JhengHei"; src: local("Source Han Sans TC"); }
@font-face { font-family: 微軟正黑體; src: local("Source Han Sans TC"); }
@font-face { font-family: "Microsoft JhengHei UI"; src: local("Source Han Sans TC"); }
@font-face { font-family: "STHeiti TC"; src: local("PingFang TC"); }
@font-face { font-family: Arial; src: local("Source Han Sans SC"); }
@font-face { font-family: Tahoma; src: local("Source Han Sans SC"); }
@font-face { font-family: Verdana; src: local("Source Han Sans SC"); }
@font-face { font-family: Helvetica; src: local("Source Han Sans SC"); }
@font-face { font-family: "Segoe UI"; src: local("Source Han Sans SC"); }
@font-face { font-family: Courier; src: local("Source Code Pro"); }
@font-face { font-family: "Courier New"; src: local("Source Code Pro"); }
</style></defs><path d="M728.273207 957.614034c-0.884137-0.185218-1.677199-0.035816-2.542916-0.257873-0.036839-0.366344-0.073678-0.699941-0.110517-1.068332C402.196687 803.945165 179.833273 480.635665 155.619802 111.375623l-2.663666-3.659343c0.524956-1.197268 1.419326-2.091638 2.026146-3.217275-0.017396-0.193405-0.045025-0.36839-0.063445-0.552585l0.424672-0.036839c40.223097-74.714655 240.079914-21.964244 240.079914-21.964244l-1.27197 8.239662c11.383258 51.237965 26.258037 101.277638 45.107337 149.45694l-119.306246 70.566172c0 0 33.301454 278.081413 277.437753 392.117632l106.770745-79.526241c50.28936 45.200458 105.07615 85.499279 164.048263 119.721709l-3.77907 6.194072 3.133364-2.028193c0 0-42.953278 215.535915-130.698714 211.775264l-1.62194 2.691295C732.882178 960.01164 730.632951 958.721251 728.273207 957.614034L728.273207 957.614034z" p-id="2391" fill="#ffffff"></path></svg>